<svg width="24" height="24" viewBox="0 0 41 47" fill="none" xmlns="http://www.w3.org/2000/svg"><path d="M15.9549 23.0005H12.9322V19.9778H15.9549V23.0005ZM28.0459 23.0005H25.0231V19.9778H28.0459V23.0005ZM40.1368 19.9778V26.0233H37.114V33.5801C37.114 34.2098 36.996 34.8002 36.7598 35.3512C36.5237 35.9022 36.2009 36.3824 35.7916 36.7917C35.3823 37.2011 34.9021 37.5238 34.3511 37.76C33.8001 37.9961 33.2097 38.1142 32.5799 38.1142H26.3456L15.9549 46.9935V38.1142H8.39813C7.76839 38.1142 7.17801 37.9961 6.627 37.76C6.07598 37.5238 5.59581 37.2011 5.18648 36.7917C4.77715 36.3824 4.45441 35.9022 4.21826 35.3512C3.98211 34.8002 3.86404 34.2098 3.86404 33.5801V26.0233H0.841309V19.9778H3.86404V15.4437C3.86404 14.814 3.98211 14.2236 4.21826 13.6726C4.45441 13.1216 4.77715 12.6414 5.18648 12.2321C5.59581 11.8228 6.07598 11.5 6.627 11.2639C7.17801 11.0277 7.76839 10.9096 8.39813 10.9096H18.9777V5.97409C18.5211 5.70645 18.159 5.33649 17.8914 4.86418C17.6237 4.39188 17.482 3.88809 17.4663 3.35282C17.4663 2.92775 17.545 2.53417 17.7025 2.17207C17.8599 1.80997 18.0724 1.4951 18.3401 1.22747C18.6077 0.959828 18.9304 0.739421 19.3083 0.566243C19.6861 0.393066 20.0797 0.31435 20.489 0.330093C20.9141 0.330093 21.3077 0.40881 21.6698 0.566243C22.0319 0.723677 22.3468 0.936213 22.6144 1.20385C22.882 1.47149 23.1024 1.79423 23.2756 2.17207C23.4488 2.54991 23.5275 2.94349 23.5118 3.35282C23.5118 3.88809 23.3779 4.39188 23.1103 4.86418C22.8427 5.33649 22.4727 5.70645 22.0004 5.97409V10.9096H32.5799C33.2097 10.9096 33.8001 11.0277 34.3511 11.2639C34.9021 11.5 35.3823 11.8228 35.7916 12.2321C36.2009 12.6414 36.5237 13.1216 36.7598 13.6726C36.996 14.2236 37.114 14.814 37.114 15.4437V19.9778H40.1368ZM34.0913 15.4437C34.0913 15.0344 33.9417 14.6802 33.6426 14.3811C33.3435 14.0819 32.9893 13.9324 32.5799 13.9324H8.39813C7.9888 13.9324 7.63457 14.0819 7.33545 14.3811C7.03632 14.6802 6.88676 15.0344 6.88676 15.4437V33.5801C6.88676 33.9894 7.03632 34.3437 7.33545 34.6428C7.63457 34.9419 7.9888 35.0915 8.39813 35.0915H18.9777V40.4285L25.212 35.0915H32.5799C32.9893 35.0915 33.3435 34.9419 33.6426 34.6428C33.9417 34.3437 34.0913 33.9894 34.0913 33.5801V15.4437ZM13.9949 26.3539C14.8608 27.2198 15.8526 27.881 16.9704 28.3376C18.0882 28.7941 19.2611 29.0303 20.489 29.046C21.717 29.046 22.8899 28.8177 24.0077 28.3612C25.1255 27.9046 26.1173 27.2355 26.9832 26.3539L29.1085 28.5029C27.9593 29.6521 26.6447 30.5338 25.1648 31.1477C23.6849 31.7617 22.1263 32.0687 20.489 32.0687C18.8675 32.0687 17.3167 31.7617 15.8369 31.1477C14.357 30.5338 13.0345 29.6521 11.8695 28.5029L13.9949 26.3539Z" fill="white"/></svg>