<svg width="24" height="24" viewBox="0 0 26 26" fill="none" xmlns="http://www.w3.org/2000/svg">
<path d="M24.3168 0.564455H1.63354C1.23347 0.563698 0.866698 0.787194 0.683815 1.14312C0.49841 1.50384 0.530951 1.93822 0.767815 2.26766L9.078 13.9742C9.08078 13.9782 9.08381 13.982 9.08658 13.986C9.38853 14.3937 9.55173 14.8873 9.55274 15.3949V24.9391C9.55098 25.2218 9.66197 25.4933 9.86125 25.6938C10.0605 25.8943 10.3314 26.0068 10.614 26.0068C10.7577 26.0068 10.8998 25.9781 11.0325 25.9231L15.7021 24.1424C16.1206 24.0148 16.3984 23.62 16.3984 23.1445V15.3949C16.3991 14.8876 16.5626 14.3937 16.8643 13.986C16.867 13.982 16.8701 13.9782 16.8728 13.9742L25.1828 2.26716C25.4196 1.93797 25.4522 1.50384 25.2668 1.14312C25.0839 0.787194 24.7171 0.563698 24.3168 0.564455ZM15.823 13.2209C15.3588 13.8508 15.1078 14.6124 15.1063 15.3949V22.9876L10.8443 24.6126V15.3949C10.8428 14.6124 10.5918 13.8508 10.1274 13.2209L2.0596 1.85599H23.891L15.823 13.2209Z" fill="white"/>
</svg>
