<svg width="41" height="41" viewBox="0 0 41 41" fill="none" xmlns="http://www.w3.org/2000/svg"><circle cx="20.5" cy="20.5" r="20.5" fill="#2A66F4" fill-opacity="0.15"/><path d="M31.1012 21.1769L11.7529 28.8991C11.5865 28.9655 11.4038 29 11.2186 29C10.5456 29 10 28.5536 10 28.0029L10 27.9742C10 27.8404 10.0201 27.7071 10.0597 27.5773L11.9157 21.5032C11.9664 21.3373 12.1378 21.2148 12.3455 21.1959L20.5031 20.4543C20.786 20.4286 21 20.2329 21 20C21 19.7671 20.786 19.5714 20.5031 19.5457L12.3455 18.8041C12.1378 18.7852 11.9664 18.6627 11.9157 18.4968L10.0597 12.4227C10.0201 12.2929 10 12.1596 10 12.0258L10 11.997C10 11.4464 10.5456 11 11.2186 11C11.4038 11 11.5865 11.0345 11.7529 11.101L31.1012 18.8231C31.6511 19.0426 32 19.4994 32 20C32 20.5006 31.6511 20.9574 31.1012 21.1769Z" fill="#2A66F4"/></svg>