<svg width="41" height="41" viewBox="0 0 41 41" fill="none" xmlns="http://www.w3.org/2000/svg"><circle cx="20.5" cy="20.5" r="20.5" fill="#F89F1D" fill-opacity="0.15"/><path d="M30.9162 21.2813C30.709 21.2813 30.5103 21.1989 30.3638 21.0524C30.2173 20.9059 30.135 20.7072 30.135 20.5C30.1351 18.5942 29.57 16.7312 28.5113 15.1466C27.4525 13.5619 25.9476 12.3269 24.1869 11.5975C22.4262 10.8682 20.4888 10.6774 18.6196 11.0492C16.7505 11.421 15.0335 12.3388 13.686 13.6865C13.363 14.0099 13.063 14.3556 12.7881 14.7208C12.6638 14.8866 12.4787 14.9962 12.2736 15.0255C12.0685 15.0548 11.8601 15.0014 11.6943 14.8771C11.5286 14.7528 11.419 14.5677 11.3897 14.3626C11.3604 14.1575 11.4138 13.9491 11.5381 13.7833C11.8578 13.3609 12.2058 12.9607 12.5798 12.5854C14.1455 11.019 16.1406 9.95208 18.3127 9.51956C20.4849 9.08705 22.7365 9.30837 24.7829 10.1555C26.8292 11.0027 28.5784 12.4377 29.8092 14.279C31.04 16.1203 31.6971 18.2852 31.6975 20.5C31.6975 20.7072 31.6152 20.9059 31.4686 21.0524C31.3221 21.1989 31.1234 21.2813 30.9162 21.2813Z" fill="#F89F1D"/><path d="M20.4997 31.6979C19.0291 31.6982 17.5728 31.4087 16.2141 30.8461C14.8554 30.2834 13.6208 29.4586 12.5809 28.4187C11.5411 27.3789 10.7162 26.1443 10.1536 24.7856C9.59094 23.4269 9.30148 21.9706 9.30176 20.5C9.30176 20.2928 9.38407 20.0941 9.53058 19.9476C9.67709 19.8011 9.87581 19.7188 10.083 19.7188C10.2902 19.7188 10.4889 19.8011 10.6354 19.9476C10.7819 20.0941 10.8643 20.2928 10.8643 20.5C10.8642 22.4058 11.4292 24.2688 12.4879 25.8534C13.5467 27.4381 15.0516 28.6732 16.8123 29.4025C18.573 30.1318 20.5104 30.3226 22.3796 29.9508C24.2488 29.579 25.9657 28.6612 27.3132 27.3135C27.6361 26.9906 27.9358 26.6453 28.2101 26.2802C28.3385 26.1262 28.5211 26.0274 28.7203 26.0042C28.9194 25.981 29.1199 26.0351 29.2803 26.1554C29.4406 26.2757 29.5487 26.453 29.5822 26.6507C29.6157 26.8483 29.572 27.0513 29.4601 27.2177C29.1408 27.6408 28.7927 28.0414 28.4184 28.4167C27.3809 29.4599 26.1469 30.287 24.7876 30.8502C23.4284 31.4135 21.971 31.7016 20.4997 31.6979Z" fill="#F89F1D"/><path d="M29.3385 30.1198C29.1313 30.1198 28.9326 30.0375 28.786 29.891C28.6395 29.7444 28.5572 29.5457 28.5572 29.3385V27.174H26.3916C26.1844 27.174 25.9857 27.0916 25.8392 26.9451C25.6927 26.7986 25.6104 26.5999 25.6104 26.3927C25.6104 26.1855 25.6927 25.9868 25.8392 25.8403C25.9857 25.6938 26.1844 25.6115 26.3916 25.6115H29.3385C29.5457 25.6115 29.7444 25.6938 29.8909 25.8403C30.0374 25.9868 30.1197 26.1855 30.1197 26.3927V29.3385C30.1197 29.5457 30.0374 29.7444 29.8909 29.891C29.7444 30.0375 29.5457 30.1198 29.3385 30.1198Z" fill="#F89F1D"/><path d="M14.607 15.3885H11.6611C11.4539 15.3885 11.2552 15.3062 11.1087 15.1597C10.9622 15.0132 10.8799 14.8145 10.8799 14.6073V11.6615C10.8799 11.4543 10.9622 11.2555 11.1087 11.109C11.2552 10.9625 11.4539 10.8802 11.6611 10.8802C11.8683 10.8802 12.067 10.9625 12.2136 11.109C12.3601 11.2555 12.4424 11.4543 12.4424 11.6615V13.826H14.607C14.8142 13.826 15.0129 13.9083 15.1594 14.0549C15.3059 14.2014 15.3882 14.4001 15.3882 14.6073C15.3882 14.8145 15.3059 15.0132 15.1594 15.1597C15.0129 15.3062 14.8142 15.3885 14.607 15.3885Z" fill="#F89F1D"/><path d="M25.6517 20.0115L27.1184 17.5667L19.9788 13.2792L18.5059 15.724C18.2517 16.2636 18.1259 16.8548 18.1383 17.4511C18.1508 18.0475 18.3012 18.6329 18.5777 19.1615C18.5872 19.19 18.5903 19.2202 18.5869 19.2501C18.5836 19.28 18.5738 19.3088 18.5583 19.3345C18.5427 19.3602 18.5218 19.3823 18.4969 19.3992C18.4721 19.416 18.4438 19.4273 18.4142 19.4323C17.8176 19.437 17.2303 19.5799 16.6982 19.8497C16.1661 20.1195 15.7038 20.509 15.3475 20.9875L13.8809 23.4333L21.0257 27.7208L22.4934 25.276C22.7475 24.7364 22.8733 24.1453 22.861 23.549C22.8487 22.9526 22.6987 22.3672 22.4225 21.8385C22.4131 21.8101 22.4099 21.7799 22.4132 21.7501C22.4165 21.7203 22.4262 21.6916 22.4416 21.6658C22.4571 21.6401 22.4779 21.618 22.5026 21.6011C22.5274 21.5842 22.5555 21.5728 22.585 21.5677C23.1816 21.5627 23.769 21.4196 24.3011 21.1496C24.8331 20.8796 25.2954 20.49 25.6517 20.0115Z" fill="#F89F1D"/><path d="M27.8176 16.3786L20.6759 12.0953C20.1829 11.7996 19.5435 11.9595 19.2478 12.4526C18.9521 12.9456 19.112 13.585 19.6051 13.8807L26.7467 18.164C27.2398 18.4597 27.8792 18.2997 28.1749 17.8067C28.4706 17.3137 28.3106 16.6743 27.8176 16.3786Z" fill="#F89F1D"/><path d="M21.3947 27.0954L14.2531 22.812C13.76 22.5163 13.1206 22.6763 12.8249 23.1693C12.5292 23.6623 12.6892 24.3017 13.1822 24.5974L20.3239 28.8808C20.8169 29.1765 21.4563 29.0165 21.752 28.5235C22.0477 28.0305 21.8878 27.3911 21.3947 27.0954Z" fill="#F89F1D"/></svg>