<svg width="24" height="24" viewBox="0 0 38 38" fill="none" xmlns="http://www.w3.org/2000/svg">
<path d="M2.26606 20.1941C1.66506 20.1941 1.08868 19.9554 0.663713 19.5304C0.238745 19.1054 0 18.529 0 17.928C0.0385802 14.4387 1.08341 11.0347 3.00907 8.12454C4.93473 5.21442 7.65937 2.92191 10.8559 1.52223C14.0524 0.12255 17.585 -0.32482 21.0296 0.233827C24.4741 0.792475 27.6842 2.3334 30.2745 4.67161V3.67454C30.2745 3.07355 30.5133 2.49716 30.9382 2.0722C31.3632 1.64723 31.9396 1.40848 32.5406 1.40848C33.1416 1.40848 33.718 1.64723 34.1429 2.0722C34.5679 2.49716 34.8067 3.07355 34.8067 3.67454V10.0875C34.8067 10.6885 34.5679 11.2649 34.1429 11.6898C33.718 12.1148 33.1416 12.3535 32.5406 12.3535H26.1276C25.5267 12.3535 24.9503 12.1148 24.5253 11.6898C24.1003 11.2649 23.8616 10.6885 23.8616 10.0875C23.8616 9.48649 24.1003 8.91011 24.5253 8.48514C24.9503 8.06017 25.5267 7.82143 26.1276 7.82143H26.8528C24.8899 6.15661 22.4947 5.08315 19.9458 4.72585C17.3969 4.36855 14.7989 4.74209 12.4539 5.80304C10.1089 6.86399 8.1132 8.56876 6.69883 10.7192C5.28447 12.8696 4.50954 15.3773 4.46413 17.9507C4.45854 18.5362 4.22655 19.0968 3.81679 19.515C3.40703 19.9332 2.85129 20.1766 2.26606 20.1941ZM35.5545 17.2709C34.9535 17.2709 34.3771 17.5096 33.9521 17.9346C33.5271 18.3596 33.2884 18.936 33.2884 19.5369C33.2883 22.1208 32.5519 24.6512 31.1655 26.8316C29.7791 29.0121 27.8001 30.7523 25.4602 31.8485C23.1204 32.9447 20.5166 33.3515 17.954 33.0212C15.3913 32.6909 12.9758 31.6372 10.9904 29.9835H11.7835C12.3845 29.9835 12.9609 29.7447 13.3858 29.3198C13.8108 28.8948 14.0496 28.3184 14.0496 27.7174C14.0496 27.1164 13.8108 26.54 13.3858 26.1151C12.9609 25.6901 12.3845 25.4514 11.7835 25.4514H5.30258C4.70158 25.4514 4.1252 25.6901 3.70023 26.1151C3.27526 26.54 3.03652 27.1164 3.03652 27.7174V34.1304C3.03652 34.7314 3.27526 35.3077 3.70023 35.7327C4.1252 36.1577 4.70158 36.3964 5.30258 36.3964C5.90357 36.3964 6.47995 36.1577 6.90492 35.7327C7.32989 35.3077 7.56863 34.7314 7.56863 34.1304V33.1333C11.0131 36.2394 15.5171 37.9071 20.1538 37.7933C24.7906 37.6795 29.2073 35.7928 32.4953 32.5215C34.2094 30.8221 35.5626 28.794 36.4737 26.5589C37.3849 24.3238 37.8353 21.9277 37.7978 19.5143C37.7919 18.9211 37.5537 18.3539 37.1342 17.9345C36.7148 17.515 36.1476 17.2768 35.5545 17.2709Z" fill="white"/>
</svg>
