<svg width="24" height="24" viewBox="0 0 31 31" fill="none" xmlns="http://www.w3.org/2000/svg"><mask id="mask0_16_4084" style="mask-type:luminance" maskUnits="userSpaceOnUse" x="0" y="0" width="31" height="31"><path d="M31 0H0V31H31V0Z" fill="white"/></mask><g mask="url(#mask0_16_4084)"><path d="M11.825 31.0029C11.6335 31.0029 11.4439 30.9651 11.267 30.8919L7.76201 29.4359C7.40308 29.2866 7.11802 29.0011 6.96936 28.6419C6.8207 28.2827 6.82057 27.8792 6.96901 27.5199C7.17102 27.032 7.22381 26.4952 7.12071 25.9773C7.01761 25.4594 6.76325 24.9837 6.3898 24.6103C6.01634 24.237 5.54057 23.9827 5.02263 23.8798C4.50469 23.7768 3.96786 23.8298 3.48001 24.0319C3.30214 24.1057 3.11148 24.1437 2.91892 24.1438C2.72635 24.1439 2.53566 24.106 2.35774 24.0324C2.17981 23.9587 2.01813 23.8507 1.88195 23.7146C1.74576 23.5785 1.63772 23.4168 1.56401 23.2389L0.113015 19.7389C-0.0356664 19.3798 -0.0356533 18.9764 0.113051 18.6173C0.261756 18.2582 0.546979 17.9728 0.906015 17.8239C1.39674 17.6259 1.81643 17.2846 2.11038 16.8445C2.40434 16.4045 2.55893 15.8861 2.55401 15.3569C2.55988 14.8271 2.40572 14.3077 2.11169 13.8669C1.81767 13.426 1.39746 13.0841 0.906015 12.8859C0.728116 12.8122 0.566482 12.7042 0.430345 12.568C0.294208 12.4318 0.186235 12.2701 0.112594 12.0922C0.0389534 11.9143 0.00108761 11.7236 0.00115977 11.531C0.00123194 11.3385 0.0392406 11.1478 0.113015 10.9699L1.56501 7.46993C1.71336 7.11035 1.99835 6.82434 2.35741 6.67472C2.71646 6.52509 3.12022 6.52409 3.48001 6.67193C3.96786 6.87408 4.50469 6.92702 5.02263 6.82407C5.54057 6.72112 6.01634 6.4669 6.3898 6.09355C6.76325 5.7202 7.01761 5.2445 7.12071 4.72659C7.22381 4.20869 7.17102 3.67184 6.96901 3.18393C6.82088 2.82477 6.82117 2.42153 6.96981 2.06257C7.11846 1.70362 7.40333 1.41823 7.76201 1.26893L11.267 -0.183067C11.4449 -0.256841 11.6355 -0.29485 11.8281 -0.294922C12.0207 -0.294994 12.2114 -0.257128 12.3893 -0.183487C12.5672 -0.109847 12.7289 -0.001874 12.8651 0.134263C13.0013 0.2704 13.1093 0.432035 13.183 0.609933C13.3809 1.10058 13.722 1.52023 14.1619 1.81419C14.6018 2.10815 15.12 2.26278 15.649 2.25793C16.1782 2.26285 16.6966 2.10826 17.1366 1.8143C17.5766 1.52035 17.9179 1.10066 18.116 0.609933C18.2649 0.250897 18.5502 -0.0343259 18.9093 -0.18303C19.2684 -0.331735 19.6719 -0.331748 20.031 -0.183067L23.531 1.26793C23.7089 1.34164 23.8705 1.44968 24.0067 1.58586C24.1428 1.72205 24.2508 1.88373 24.3244 2.06165C24.3981 2.23958 24.4359 2.43027 24.4359 2.62284C24.4358 2.8154 24.3978 3.00606 24.324 3.18393C24.1222 3.67173 24.0695 4.20842 24.1725 4.72617C24.2756 5.24392 24.5299 5.71949 24.9032 6.09278C25.2765 6.46607 25.752 6.72032 26.2698 6.82341C26.7875 6.92649 27.3242 6.87378 27.812 6.67193C28.1713 6.52349 28.5748 6.52361 28.934 6.67228C29.2932 6.82094 29.5787 7.106 29.728 7.46493L31.179 10.9649C31.3271 11.3241 31.3269 11.7273 31.1782 12.0863C31.0296 12.4452 30.7447 12.7306 30.386 12.8799C29.898 13.0819 29.4808 13.4242 29.1873 13.8633C28.8939 14.3024 28.7372 14.8187 28.7372 15.3469C28.7372 15.8751 28.8939 16.3914 29.1873 16.8306C29.4808 17.2697 29.898 17.6119 30.386 17.8139C30.7447 17.9632 31.0296 18.2486 31.1782 18.6076C31.3269 18.9665 31.3271 19.3698 31.179 19.7289L29.727 23.2339C29.5777 23.5929 29.2922 23.8779 28.933 24.0266C28.5738 24.1753 28.1703 24.1754 27.811 24.0269C27.3232 23.8251 26.7865 23.7724 26.2688 23.8755C25.751 23.9785 25.2755 24.2328 24.9022 24.6061C24.5289 24.9794 24.2746 25.4549 24.1715 25.9727C24.0685 26.4904 24.1212 27.0271 24.323 27.5149C24.4715 27.8742 24.4713 28.2777 24.3227 28.6369C24.174 28.9961 23.8889 29.2816 23.53 29.4309L20.03 30.8819C19.6707 31.0301 19.2673 31.0298 18.9082 30.8812C18.5491 30.7326 18.2635 30.4477 18.114 30.0889C17.9118 29.6012 17.5696 29.1844 17.1306 28.8911C16.6916 28.5978 16.1755 28.4413 15.6475 28.4413C15.1196 28.4413 14.6034 28.5978 14.1644 28.8911C13.7254 29.1844 13.3832 29.6012 13.181 30.0889C13.0688 30.356 12.8801 30.584 12.6386 30.7442C12.3972 30.9043 12.1137 30.9895 11.824 30.9889L11.825 31.0029ZM4.52501 22.4309C5.0552 22.4327 5.57977 22.5396 6.06831 22.7456C6.55685 22.9516 6.99964 23.2525 7.37101 23.6309C7.94589 24.1943 8.33741 24.9181 8.49441 25.7075C8.65141 26.497 8.56659 27.3155 8.25101 28.0559C8.24694 28.0652 8.24477 28.0751 8.24464 28.0852C8.24451 28.0953 8.24641 28.1053 8.25024 28.1147C8.25407 28.124 8.25974 28.1325 8.26692 28.1396C8.2741 28.1466 8.28263 28.1522 8.29201 28.1559L11.8 29.6029C11.8187 29.6106 11.8397 29.6106 11.8584 29.6029C11.8771 29.5953 11.8921 29.5805 11.9 29.5619C12.2076 28.8206 12.728 28.1871 13.3954 27.7415C14.0629 27.2958 14.8474 27.0579 15.65 27.0579C16.4526 27.0579 17.2372 27.2958 17.9046 27.7415C18.572 28.1871 19.0924 28.8206 19.4 29.5619C19.4038 29.5712 19.4095 29.5797 19.4166 29.5868C19.4237 29.5939 19.4322 29.5995 19.4415 29.6033C19.4508 29.6071 19.4607 29.6091 19.4708 29.609C19.4808 29.6089 19.4908 29.6069 19.5 29.6029L23 28.1509C23.0093 28.1473 23.0178 28.1418 23.0248 28.1347C23.0319 28.1277 23.0374 28.1192 23.041 28.1099C23.0485 28.0917 23.0485 28.0712 23.041 28.0529C22.7336 27.3109 22.6532 26.4943 22.8099 25.7066C22.9666 24.9188 23.3533 24.1952 23.9213 23.6272C24.4892 23.0593 25.2129 22.6725 26.0006 22.5158C26.7884 22.3591 27.605 22.4395 28.347 22.7469C28.356 22.7507 28.3657 22.7526 28.3755 22.7526C28.3853 22.7526 28.395 22.7507 28.404 22.7469C28.414 22.7432 28.423 22.7374 28.4305 22.7298C28.4379 22.7221 28.4435 22.713 28.447 22.7029L29.9 19.2029C29.9039 19.1937 29.906 19.1837 29.9061 19.1737C29.9061 19.1636 29.9042 19.1537 29.9004 19.1444C29.8966 19.1351 29.891 19.1266 29.8839 19.1195C29.8768 19.1124 29.8683 19.1068 29.859 19.1029C29.1181 18.795 28.485 18.2745 28.0397 17.6071C27.5943 16.9397 27.3566 16.1553 27.3566 15.3529C27.3566 14.5506 27.5943 13.7662 28.0397 13.0988C28.485 12.4314 29.1181 11.9109 29.859 11.6029C29.8683 11.5991 29.8768 11.5935 29.8839 11.5864C29.891 11.5792 29.8966 11.5708 29.9004 11.5615C29.9042 11.5522 29.9061 11.5422 29.9061 11.5322C29.906 11.5221 29.9039 11.5122 29.9 11.5029L28.449 8.00293C28.4452 7.99364 28.4396 7.9852 28.4324 7.97809C28.4253 7.97099 28.4169 7.96537 28.4076 7.96156C28.3983 7.95775 28.3883 7.95582 28.3783 7.95588C28.3682 7.95594 28.3583 7.958 28.349 7.96193C27.6085 8.2775 26.7901 8.36233 26.0006 8.20533C25.2111 8.04833 24.4874 7.65681 23.924 7.08193C23.3491 6.51853 22.9576 5.7948 22.8006 5.00534C22.6436 4.21588 22.7284 3.39742 23.044 2.65693C23.0517 2.63836 23.0517 2.61751 23.044 2.59893C23.0408 2.58826 23.0351 2.57847 23.0275 2.57032C23.0198 2.56217 23.0105 2.55588 23 2.55193L19.5 1.10293C19.4908 1.09886 19.4808 1.09669 19.4707 1.09656C19.4606 1.09643 19.4506 1.09833 19.4413 1.10216C19.432 1.10599 19.4235 1.11166 19.4164 1.11884C19.4093 1.12602 19.4037 1.13455 19.4 1.14393C19.0996 1.89086 18.5807 2.52974 17.9113 2.97702C17.2419 3.42431 16.4531 3.65918 15.648 3.65093C14.8434 3.65822 14.0553 3.42267 13.3867 2.97506C12.718 2.52745 12.1999 1.88859 11.9 1.14193C11.8963 1.13269 11.8907 1.1243 11.8837 1.11725C11.8767 1.1102 11.8683 1.10466 11.859 1.10093C11.85 1.09711 11.8403 1.09514 11.8305 1.09514C11.8207 1.09514 11.811 1.09711 11.802 1.10093L8.29401 2.55193C8.28472 2.55576 8.27628 2.5614 8.26918 2.56851C8.26207 2.57562 8.25645 2.58407 8.25264 2.59337C8.24883 2.60267 8.2469 2.61264 8.24696 2.62269C8.24702 2.63274 8.24908 2.64268 8.25301 2.65193C8.56859 3.39242 8.65341 4.21088 8.49641 5.00034C8.33941 5.7898 7.94789 6.51353 7.37301 7.07693C6.80962 7.65181 6.08588 8.04333 5.29642 8.20033C4.50696 8.35733 3.6885 8.2725 2.94801 7.95693C2.93878 7.95286 2.92882 7.95069 2.91873 7.95056C2.90864 7.95043 2.89863 7.95233 2.88929 7.95616C2.87996 7.95999 2.87149 7.96566 2.86439 7.97284C2.8573 7.98002 2.85173 7.98855 2.84801 7.99793L1.40001 11.5029C1.39594 11.5122 1.39377 11.5221 1.39364 11.5322C1.39351 11.5423 1.39541 11.5523 1.39924 11.5617C1.40307 11.571 1.40874 11.5795 1.41592 11.5866C1.4231 11.5936 1.43163 11.5992 1.44101 11.6029C2.18794 11.9034 2.82682 12.4223 3.27411 13.0917C3.72139 13.7611 3.95627 14.5499 3.94801 15.3549C3.9553 16.1595 3.71975 16.9476 3.27214 17.6163C2.82454 18.2849 2.18568 18.803 1.43901 19.1029C1.42963 19.1066 1.4211 19.1122 1.41392 19.1193C1.40674 19.1264 1.40107 19.1349 1.39724 19.1442C1.39341 19.1535 1.39151 19.1636 1.39164 19.1737C1.39177 19.1837 1.39394 19.1937 1.39801 19.2029L2.84901 22.7029C2.85263 22.7122 2.85815 22.7207 2.8652 22.7277C2.87226 22.7348 2.88071 22.7403 2.89001 22.7439C2.899 22.7479 2.9087 22.7499 2.91851 22.7499C2.92832 22.7499 2.93803 22.7479 2.94701 22.7439C3.44765 22.535 3.98452 22.4266 4.52701 22.4249L4.52501 22.4309Z" fill="white"/><path d="M15.648 20.2009C14.689 20.2009 13.7515 19.9165 12.954 19.3837C12.1566 18.8509 11.5351 18.0936 11.1681 17.2076C10.8011 16.3215 10.7051 15.3465 10.8922 14.4059C11.0793 13.4653 11.5411 12.6013 12.2192 11.9232C12.8974 11.245 13.7614 10.7832 14.702 10.5961C15.6426 10.409 16.6176 10.505 17.5036 10.872C18.3897 11.2391 19.147 11.8605 19.6798 12.658C20.2126 13.4554 20.497 14.3929 20.497 15.3519C20.4957 16.6376 19.9844 17.8701 19.0753 18.7792C18.1662 19.6883 16.9336 20.1996 15.648 20.2009ZM15.648 11.8939C14.9641 11.8939 14.2955 12.0967 13.7268 12.4767C13.1582 12.8567 12.7149 13.3967 12.4532 14.0286C12.1915 14.6605 12.123 15.3558 12.2564 16.0266C12.3899 16.6973 12.7192 17.3135 13.2028 17.7971C13.6864 18.2807 14.3026 18.61 14.9734 18.7435C15.6442 18.8769 16.3394 18.8084 16.9713 18.5467C17.6032 18.285 18.1433 17.8417 18.5232 17.2731C18.9032 16.7044 19.106 16.0359 19.106 15.3519C19.105 14.4351 18.7403 13.5562 18.092 12.9079C17.4437 12.2596 16.5648 11.895 15.648 11.8939Z" fill="white"/></g></svg>