<svg width="41" height="41" viewBox="0 0 41 41" fill="none" xmlns="http://www.w3.org/2000/svg">
<circle cx="20.5" cy="20.5" r="20.5" fill="#198754" fill-opacity="0.15"/>
<path d="M32 20.495L29.4491 17.7057L29.8045 14.0134L26.0305 13.1906L24.0545 10L20.5 11.4649L16.9455 10L14.9695 13.1906L11.1955 14.0033L11.5509 17.6957L9 20.495L11.5509 23.2843L11.1955 26.9866L14.9695 27.8094L16.9455 31L20.5 29.5251L24.0545 30.99L26.0305 27.7993L29.8045 26.9766L29.4491 23.2843L32 20.495ZM18.4091 25.5117L14.2273 21.4983L15.7014 20.0836L18.4091 22.6722L25.2986 16.0602L26.7727 17.4849L18.4091 25.5117Z" fill="#198754"/>
</svg>
