<svg width="41" height="41" viewBox="0 0 41 41" fill="none" xmlns="http://www.w3.org/2000/svg"><circle cx="20.5" cy="20.5" r="20.5" fill="#9747FF" fill-opacity="0.19"/><path d="M13.2087 23.625H12.167V10.6042C12.167 10.1898 12.3316 9.79234 12.6246 9.49932C12.9177 9.20629 13.3151 9.04167 13.7295 9.04167H26.2295C26.6439 9.04167 27.0413 9.20629 27.3343 9.49932C27.6274 9.79234 27.792 10.1898 27.792 10.6042V11.6458H26.7503V10.6042C26.7503 10.466 26.6955 10.3336 26.5978 10.2359C26.5001 10.1382 26.3676 10.0833 26.2295 10.0833H13.7295C13.5914 10.0833 13.4589 10.1382 13.3612 10.2359C13.2635 10.3336 13.2087 10.466 13.2087 10.6042V23.625ZM26.7503 30.3958C26.7503 30.534 26.6955 30.6665 26.5978 30.7641C26.5001 30.8618 26.3676 30.9167 26.2295 30.9167H13.7295C13.5914 30.9167 13.4589 30.8618 13.3612 30.7641C13.2635 30.6665 13.2087 30.534 13.2087 30.3958V29.3542H12.167V30.3958C12.167 30.8102 12.3316 31.2077 12.6246 31.5007C12.9177 31.7937 13.3151 31.9583 13.7295 31.9583H26.2295C26.6439 31.9583 27.0413 31.7937 27.3343 31.5007C27.6274 31.2077 27.792 30.8102 27.792 30.3958V24.6667H26.7503V30.3958ZM22.5837 27.7917H9.04199V28.8333H22.5837V27.7917ZM29.3545 18.9375H25.7087V15.2917C25.7087 15.1535 25.6538 15.0211 25.5561 14.9234C25.4584 14.8257 25.326 14.7708 25.1878 14.7708C24.2607 14.7708 23.3544 15.0458 22.5836 15.5608C21.8127 16.0759 21.2119 16.808 20.8571 17.6645C20.5024 18.521 20.4095 19.4635 20.5904 20.3728C20.7713 21.2821 21.2177 22.1173 21.8733 22.7729C22.5288 23.4285 23.3641 23.8749 24.2733 24.0558C25.1826 24.2366 26.1251 24.1438 26.9817 23.789C27.8382 23.4342 28.5703 22.8334 29.0853 22.0626C29.6004 21.2917 29.8753 20.3854 29.8753 19.4583C29.8753 19.3202 29.8205 19.1877 29.7228 19.0901C29.6251 18.9924 29.4926 18.9375 29.3545 18.9375ZM27.2712 12.6875C27.133 12.6875 27.0005 12.7424 26.9029 12.8401C26.8052 12.9377 26.7503 13.0702 26.7503 13.2083V17.375C26.7503 17.5131 26.8052 17.6456 26.9029 17.7433C27.0005 17.841 27.133 17.8958 27.2712 17.8958H31.4378C31.576 17.8958 31.7084 17.841 31.8061 17.7433C31.9038 17.6456 31.9587 17.5131 31.9587 17.375C31.9587 16.1318 31.4648 14.9395 30.5857 14.0604C29.7066 13.1814 28.5144 12.6875 27.2712 12.6875ZM13.2087 24.6667C13.2087 24.5285 13.1538 24.3961 13.0561 24.2984C12.9584 24.2007 12.826 24.1458 12.6878 24.1458H10.6045C10.4664 24.1458 10.3339 24.2007 10.2362 24.2984C10.1385 24.3961 10.0837 24.5285 10.0837 24.6667V27.2708H13.2087V24.6667ZM14.7712 21.5417C14.633 21.5417 14.5005 21.5965 14.4029 21.6942C14.3052 21.7919 14.2503 21.9244 14.2503 22.0625V27.2708H17.3753V22.0625C17.3753 21.9244 17.3205 21.7919 17.2228 21.6942C17.1251 21.5965 16.9926 21.5417 16.8545 21.5417H14.7712ZM21.542 24.6667C21.542 24.5285 21.4871 24.3961 21.3894 24.2984C21.2918 24.2007 21.1593 24.1458 21.0212 24.1458H18.9378C18.7997 24.1458 18.6672 24.2007 18.5695 24.2984C18.4719 24.3961 18.417 24.5285 18.417 24.6667V27.2708H21.542V24.6667ZM21.542 13.7292V11.6458C21.542 11.5077 21.4871 11.3752 21.3894 11.2776C21.2918 11.1799 21.1593 11.125 21.0212 11.125H14.7712C14.633 11.125 14.5005 11.1799 14.4029 11.2776C14.3052 11.3752 14.2503 11.5077 14.2503 11.6458V13.7292C14.2503 13.8673 14.3052 13.9998 14.4029 14.0975C14.5005 14.1951 14.633 14.25 14.7712 14.25H21.0212C21.1593 14.25 21.2918 14.1951 21.3894 14.0975C21.4871 13.9998 21.542 13.8673 21.542 13.7292ZM14.2503 16.3333H19.9795V15.2917H14.2503V16.3333ZM19.9795 17.375H14.2503V18.4167H19.9795V17.375ZM19.9795 19.4583H14.2503V20.5H19.9795V19.4583Z" fill="#9747FF"/></svg>