<svg width="24" height="24" viewBox="0 0 29 29" fill="none" xmlns="http://www.w3.org/2000/svg">
<mask id="mask0_16_4077" style="mask-type:luminance" maskUnits="userSpaceOnUse" x="0" y="0" width="29" height="29">
<path d="M29 0H0V29H29V0Z" fill="white"/>
</mask>
<g mask="url(#mask0_16_4077)">
<path d="M14.435 3.46541e-08C11.58 -0.00019775 8.78906 0.846232 6.4151 2.43225C4.04115 4.01827 2.19082 6.27264 1.09812 8.91027C0.00541162 11.5479 -0.280592 14.4503 0.276272 17.2505C0.833137 20.0507 2.20786 22.6229 4.22659 24.6417C6.24532 26.6606 8.81739 28.0355 11.6175 28.5926C14.4177 29.1496 17.3201 28.8638 19.9578 27.7713C22.5955 26.6788 24.85 24.8286 26.4362 22.4548C28.0224 20.0809 28.869 17.29 28.869 14.435C28.8648 10.6081 27.3427 6.93909 24.6368 4.23294C21.9308 1.5268 18.262 0.00449965 14.435 3.46541e-08ZM8.49103 18.287C9.6713 17.1369 11.1599 16.3539 12.7763 16.033C14.3927 15.712 16.0675 15.8669 17.5977 16.4789C19.1278 17.0908 20.4475 18.1335 21.3969 19.4806C22.3462 20.8276 22.8843 22.4212 22.946 24.068C20.5994 26.1494 17.5717 27.2992 14.435 27.3H14.349C11.2429 27.2791 8.24973 26.1322 5.92503 24.072C6.00361 21.8862 6.92324 19.8151 8.49203 18.291M14.436 14.291C12.0702 14.2947 9.78061 15.1284 7.96625 16.6467C6.15188 18.1651 4.92771 20.2718 4.50703 22.6C2.95666 20.7179 1.97325 18.4339 1.67143 16.0142C1.36962 13.5945 1.76185 11.1389 2.80239 8.93367C3.84293 6.72841 5.48891 4.86438 7.54842 3.55888C9.60793 2.25339 11.9961 1.56024 14.4345 1.56024C16.8729 1.56024 19.2611 2.25339 21.3206 3.55888C23.3802 4.86438 25.0261 6.72841 26.0667 8.93367C27.1072 11.1389 27.4994 13.5945 27.1976 16.0142C26.8958 18.4339 25.9124 20.7179 24.362 22.6C23.9414 20.272 22.7174 18.1654 20.9032 16.6471C19.089 15.1287 16.7997 14.295 14.434 14.291" fill="white"/>
<path d="M14.434 3.97021C13.5576 3.97021 12.7009 4.23013 11.9722 4.71706C11.2435 5.20398 10.6756 5.89606 10.3403 6.70578C10.0049 7.5155 9.91721 8.40648 10.0883 9.26604C10.2593 10.1256 10.6814 10.9151 11.3012 11.5348C11.921 12.1544 12.7106 12.5763 13.5702 12.7472C14.4298 12.9181 15.3208 12.8302 16.1304 12.4946C16.9401 12.1591 17.632 11.591 18.1188 10.8622C18.6055 10.1334 18.8652 9.27663 18.865 8.40022C18.8637 7.22555 18.3964 6.09937 17.5657 5.26884C16.735 4.43832 15.6087 3.97127 14.434 3.97021ZM14.434 11.2592C13.8688 11.2592 13.3162 11.0916 12.8462 10.7776C12.3762 10.4635 12.0099 10.0172 11.7936 9.49493C11.5773 8.9727 11.5207 8.39806 11.631 7.84366C11.7412 7.28926 12.0134 6.78001 12.4131 6.38031C12.8128 5.98061 13.3221 5.70842 13.8765 5.59814C14.4309 5.48787 15.0055 5.54446 15.5278 5.76077C16.05 5.97709 16.4963 6.3434 16.8104 6.8134C17.1244 7.2834 17.292 7.83596 17.292 8.40121C17.2912 9.15896 16.9899 9.88544 16.4541 10.4212C15.9183 10.9571 15.1918 11.2584 14.434 11.2592Z" fill="white"/>
</g>
</svg>
