<svg width="23" height="23" viewBox="0 0 23 23" fill="none" xmlns="http://www.w3.org/2000/svg"><path d="M8.49609 11.293C8.49609 12.0886 8.81216 12.8517 9.37477 13.4143C9.93738 13.9769 10.7004 14.293 11.4961 14.293C12.2917 14.293 13.0548 13.9769 13.6174 13.4143C14.18 12.8517 14.4961 12.0886 14.4961 11.293C14.4961 10.4973 14.18 9.73426 13.6174 9.17165C13.0548 8.60904 12.2917 8.29297 11.4961 8.29297C10.7004 8.29297 9.93738 8.60904 9.37477 9.17165C8.81216 9.73426 8.49609 10.4973 8.49609 11.293Z" stroke="#033BA5" stroke-width="2" stroke-linecap="round" stroke-linejoin="round"/><path d="M3.49609 11.293C3.49609 13.4147 4.33895 15.4495 5.83924 16.9498C7.33953 18.4501 9.37436 19.293 11.4961 19.293M3.49609 11.293C3.49609 9.17124 4.33895 7.13641 5.83924 5.63611C7.33953 4.13582 9.37436 3.29297 11.4961 3.29297M3.49609 11.293H1.49609M11.4961 19.293C13.6178 19.293 15.6527 18.4501 17.1529 16.9498C18.6532 15.4495 19.4961 13.4147 19.4961 11.293M11.4961 19.293V21.293M19.4961 11.293C19.4961 9.17124 18.6532 7.13641 17.1529 5.63611C15.6527 4.13582 13.6178 3.29297 11.4961 3.29297M19.4961 11.293H21.4961M11.4961 3.29297V1.29297" stroke="#033BA5" stroke-width="2" stroke-linecap="round" stroke-linejoin="round"/></svg>