<svg width="21" height="21" viewBox="0 0 23 16" fill="none" xmlns="http://www.w3.org/2000/svg">
<path d="M7.86509 13.6006C7.65765 13.5999 7.45816 13.5228 7.30673 13.3848C6.55689 12.6918 5.95977 11.8575 5.55174 10.9326C5.1437 10.0078 4.93327 9.0118 4.93327 8.00527C4.93327 6.99873 5.1437 6.00273 5.55174 5.07789C5.95977 4.15306 6.55689 3.31873 7.30673 2.62571C7.46831 2.49816 7.67361 2.43507 7.88113 2.44919C8.08865 2.4633 8.28294 2.55357 8.42473 2.70175C8.56653 2.84993 8.64526 3.04498 8.64502 3.24749C8.64478 3.45001 8.56559 3.64488 8.42345 3.79275C7.83976 4.33739 7.37529 4.99136 7.05799 5.7153C6.74069 6.43924 6.57712 7.21818 6.57712 8.00527C6.57712 8.79235 6.74069 9.57129 7.05799 10.2952C7.37529 11.0192 7.83976 11.6731 8.42345 12.2178C8.54351 12.3272 8.62705 12.4692 8.66325 12.6254C8.69945 12.7816 8.68664 12.9447 8.62647 13.0937C8.56631 13.2427 8.46156 13.3707 8.32581 13.4611C8.19006 13.5515 8.02956 13.6001 7.86509 13.6006ZM4.58062 15.7429C4.73355 15.5931 4.81939 15.3905 4.81939 15.1793C4.81939 14.9682 4.73355 14.7656 4.58062 14.6158C3.66198 13.7626 2.93072 12.7369 2.43109 11.6006C1.93146 10.4644 1.67385 9.24124 1.67385 8.00527C1.67385 6.76929 1.93146 5.54617 2.43109 4.40991C2.93072 3.27366 3.66198 2.24791 4.58062 1.39473C4.73959 1.24527 4.83106 1.04046 4.83491 0.825342C4.83876 0.610228 4.75467 0.402436 4.60114 0.247677C4.44761 0.0929186 4.23722 0.00387087 4.01624 0.000123235C3.79527 -0.0036244 3.58181 0.078235 3.42284 0.227694C2.3412 1.23103 1.4801 2.43772 0.891737 3.77463C0.303375 5.11154 0 6.55083 0 8.00527C0 9.4597 0.303375 10.899 0.891737 12.2359C1.4801 13.5728 2.3412 14.7795 3.42284 15.7828C3.50185 15.8552 3.59481 15.9116 3.69634 15.9488C3.79788 15.986 3.90597 16.0032 4.01439 15.9995C4.12281 15.9958 4.22939 15.9712 4.32799 15.9271C4.42659 15.8831 4.51524 15.8205 4.58883 15.7429H4.58062ZM15.6904 13.3848C16.4402 12.6918 17.0373 11.8575 17.4454 10.9326C17.8534 10.0078 18.0638 9.0118 18.0638 8.00527C18.0638 6.99873 17.8534 6.00273 17.4454 5.07789C17.0373 4.15306 16.4402 3.31873 15.6904 2.62571C15.6116 2.55381 15.5191 2.4977 15.4182 2.46059C15.3172 2.42349 15.2097 2.40611 15.1018 2.40945C14.9939 2.41279 14.8877 2.43678 14.7894 2.48006C14.691 2.52334 14.6023 2.58505 14.5285 2.66168C14.4546 2.73831 14.397 2.82835 14.3589 2.92666C14.3207 3.02498 14.3029 3.12963 14.3063 3.23466C14.3097 3.33969 14.3344 3.44304 14.3789 3.53879C14.4233 3.63455 14.4867 3.72084 14.5654 3.79275C15.1523 4.33561 15.6195 4.989 15.9388 5.71318C16.2581 6.43736 16.4228 7.2172 16.4228 8.00527C16.4228 8.79333 16.2581 9.57317 15.9388 10.2973C15.6195 11.0215 15.1523 11.6749 14.5654 12.2178C14.4069 12.3622 14.3136 12.5619 14.3059 12.7731C14.2982 12.9843 14.3768 13.1899 14.5244 13.3449C14.6019 13.4262 14.6959 13.491 14.8005 13.535C14.9051 13.579 15.018 13.6014 15.132 13.6006C15.3394 13.5999 15.5389 13.5228 15.6904 13.3848ZM19.566 15.7828C20.6508 14.7813 21.5148 13.5752 22.1052 12.238C22.6955 10.9009 23 9.4607 23 8.00527C23 6.54983 22.6955 5.10965 22.1052 3.77249C21.5148 2.43534 20.6508 1.22923 19.566 0.227694C19.4045 0.100144 19.1992 0.0370535 18.9916 0.0511675C18.7841 0.0652815 18.5898 0.155548 18.448 0.30373C18.3062 0.451913 18.2275 0.646963 18.2278 0.849475C18.228 1.05199 18.3072 1.24686 18.4493 1.39473C19.368 2.24791 20.0992 3.27366 20.5988 4.40991C21.0985 5.54617 21.3561 6.76929 21.3561 8.00527C21.3561 9.24124 21.0985 10.4644 20.5988 11.6006C20.0992 12.7369 19.368 13.7626 18.4493 14.6158C18.2908 14.7602 18.1975 14.9599 18.1898 15.1711C18.1821 15.3823 18.2607 15.5879 18.4083 15.7429C18.4848 15.8232 18.5775 15.8874 18.6807 15.9314C18.7838 15.9754 18.8951 15.9983 19.0077 15.9987C19.2151 15.998 19.4146 15.9209 19.566 15.7828ZM13.1449 8.00527C13.1449 7.68908 13.0486 7.37999 12.8681 7.11709C12.6877 6.85419 12.4312 6.64928 12.1311 6.52828C11.831 6.40728 11.5008 6.37562 11.1823 6.4373C10.8637 6.49899 10.5711 6.65125 10.3414 6.87483C10.1117 7.09841 9.95533 7.38327 9.89197 7.69338C9.8286 8.00349 9.86112 8.32493 9.98542 8.61705C10.1097 8.90917 10.3202 9.15885 10.5903 9.33452C10.8603 9.51018 11.1778 9.60394 11.5027 9.60394C11.9382 9.60394 12.3559 9.43551 12.6639 9.1357C12.9719 8.83589 13.1449 8.42926 13.1449 8.00527Z" stroke="#033BA5" />
</svg>
