<svg width="21" height="21" viewBox="0 0 21 21" fill="none" xmlns="http://www.w3.org/2000/svg">
<path d="M19.4963 19.2932L15.1533 14.9502M15.1533 14.9502C15.8962 14.2073 16.4855 13.3254 16.8875 12.3547C17.2896 11.3841 17.4965 10.3438 17.4965 9.29317C17.4965 8.24257 17.2896 7.20226 16.8875 6.23163C16.4855 5.261 15.8962 4.37906 15.1533 3.63617C14.4104 2.89329 13.5285 2.304 12.5578 1.90195C11.5872 1.4999 10.5469 1.29297 9.4963 1.29297C8.4457 1.29297 7.40538 1.4999 6.43475 1.90195C5.46412 2.304 4.58219 2.89329 3.8393 3.63617C2.33897 5.1365 1.49609 7.17139 1.49609 9.29317C1.49609 11.415 2.33897 13.4498 3.8393 14.9502C5.33963 16.4505 7.37451 17.2934 9.4963 17.2934C11.6181 17.2934 13.653 16.4505 15.1533 14.9502ZM6.4963 9.29317H12.4963" stroke="#033BA5" stroke-width="2.19678" stroke-linecap="round" stroke-linejoin="round"/>
</svg>
